<svg width="4503" height="1965" xmlns="http://www.w3.org/2000/svg" xmlns:xlink="http://www.w3.org/1999/xlink" overflow="hidden"><defs><clipPath id="clip0"><rect x="108" y="757" width="4503" height="1965"/></clipPath></defs><g clip-path="url(#clip0)" transform="translate(-108 -757)"><path d="M112.5 1016.75C112.5 1002.25 124.254 990.5 138.754 990.5L1385.25 990.5C1399.75 990.5 1411.5 1002.25 1411.5 1016.75L1411.5 1600.25C1411.5 1614.75 1399.75 1626.5 1385.25 1626.5L138.754 1626.5C124.254 1626.5 112.5 1614.75 112.5 1600.25Z" stroke="#4874CB" stroke-width="6.875" stroke-miterlimit="8" fill="none" fill-rule="evenodd"/><rect x="158" y="1137" width="1207" height="117" fill="#E3F2D9"/><text font-family="Times New Roman,Times New Roman_MSFontService,sans-serif" font-weight="700" font-size="59" transform="matrix(1 0 0 1 266.12 1217)">From Cognitive Map to Predictive Map</text><rect x="158" y="1307" width="1207" height="117" fill="#E3F2D9"/><text font-family="Times New Roman,Times New Roman_MSFontService,sans-serif" font-weight="700" font-size="59" transform="matrix(1 0 0 1 335.156 1387)">PNT System in Mammalian Brain</text><rect x="158" y="1476" width="1207" height="117" fill="#E3F2D9"/><text font-family="Times New Roman,Times New Roman_MSFontService,sans-serif" font-weight="700" font-size="59" transform="matrix(1 0 0 1 518.489 1557)">Periodic Discussion<tspan font-size="69" x="-53.1093" y="-468">Sec. 2  </tspan><tspan font-size="69" x="149.13" y="-468">Neural  Basis</tspan></text><path d="M112.5 1744.32C112.5 1721.22 131.222 1702.5 154.317 1702.5L1369.68 1702.5C1392.78 1702.5 1411.5 1721.22 1411.5 1744.32L1411.5 2673.68C1411.5 2696.78 1392.78 2715.5 1369.68 2715.5L154.317 2715.5C131.222 2715.5 112.5 2696.78 112.5 2673.68Z" stroke="#4874CB" stroke-width="6.875" stroke-miterlimit="8" fill="none" fill-rule="evenodd"/><text font-family="Times New Roman,Times New Roman_MSFontService,sans-serif" font-weight="700" font-size="69" transform="matrix(1 0 0 1 237.531 1817)">Sec. 3  <tspan font-size="69" x="202.24" y="0">Computational  Foundations</tspan></text><rect x="158" y="1876" width="1207" height="117" fill="#E3F2D9"/><text font-family="Times New Roman,Times New Roman_MSFontService,sans-serif" font-weight="700" font-size="59" transform="matrix(1 0 0 1 269.557 1956)">Continuous Attractor Neural Networks</text><rect x="158" y="2048" width="1207" height="117" fill="#E3F2D9"/><text font-family="Times New Roman,Times New Roman_MSFontService,sans-serif" font-weight="700" font-size="59" transform="matrix(1 0 0 1 444.297 2128)">Spiking Neural Networks</text><rect x="158" y="2220" width="1207" height="117" fill="#E3F2D9"/><text font-family="Times New Roman,Times New Roman_MSFontService,sans-serif" font-weight="700" font-size="59" transform="matrix(1 0 0 1 575.495 2301)">Deep Learning</text><rect x="158" y="2393" width="1207" height="117" fill="#E3F2D9"/><text font-family="Times New Roman,Times New Roman_MSFontService,sans-serif" font-weight="700" font-size="59" transform="matrix(1 0 0 1 383.281 2473)">Deep Reinforcement Learning</text><rect x="158" y="2565" width="1207" height="117" fill="#E3F2D9"/><text font-family="Times New Roman,Times New Roman_MSFontService,sans-serif" font-weight="700" font-size="59" transform="matrix(1 0 0 1 518.489 2645)">Periodic Discussion</text><path d="M111.5 785.344C111.5 771.623 122.623 760.5 136.344 760.5L1386.66 760.5C1400.38 760.5 1411.5 771.623 1411.5 785.344L1411.5 888.656C1411.5 902.377 1400.38 913.5 1386.66 913.5L136.344 913.5C122.623 913.5 111.5 902.377 111.5 888.656Z" stroke="#4874CB" stroke-width="6.875" stroke-miterlimit="8" fill="none" fill-rule="evenodd"/><text font-family="Times New Roman,Times New Roman_MSFontService,sans-serif" font-weight="700" font-size="69" transform="matrix(1 0 0 1 472.484 862)">Sec. 1  <tspan font-size="69" x="202.24" y="0">Introduction</tspan></text><path d="M1502.5 800.345C1502.5 778.891 1519.89 761.5 1541.34 761.5L2762.66 761.5C2784.11 761.5 2801.5 778.891 2801.5 800.345L2801.5 1663.66C2801.5 1685.11 2784.11 1702.5 2762.66 1702.5L1541.34 1702.5C1519.89 1702.5 1502.5 1685.11 1502.5 1663.66Z" stroke="#4874CB" stroke-width="6.875" stroke-miterlimit="8" fill="none" fill-rule="evenodd"/><text font-family="Times New Roman,Times New Roman_MSFontService,sans-serif" font-weight="700" font-size="69" transform="matrix(1 0 0 1 1771.29 870)">Sec. 4  <tspan font-size="69" x="202.24" y="0">Current  Advances</tspan></text><rect x="1548" y="918" width="1207" height="117" fill="#E3F2D9"/><text font-family="Times New Roman,Times New Roman_MSFontService,sans-serif" font-weight="700" font-size="59" transform="matrix(1 0 0 1 1797.93 998)">CANN<tspan font-size="59" x="169.583" y="0">-</tspan><tspan font-size="59" x="189.063" y="0">based BIN Advances</tspan></text><rect x="1548" y="1076" width="1207" height="117" fill="#E3F2D9"/><text font-family="Times New Roman,Times New Roman_MSFontService,sans-serif" font-weight="700" font-size="59" transform="matrix(1 0 0 1 1820.84 1156)">DRL<tspan font-size="59" x="123.75" y="0">-</tspan><tspan font-size="59" x="143.229" y="0">based BIN Advances</tspan></text><rect x="1548" y="1233" width="1207" height="117" fill="#E3F2D9"/><text font-family="Times New Roman,Times New Roman_MSFontService,sans-serif" font-weight="700" font-size="59" transform="matrix(1 0 0 1 1823.99 1314)">SNN<tspan font-size="59" x="117.448" y="0">-</tspan><tspan font-size="59" x="136.927" y="0">based BIN Advances</tspan></text><rect x="1548" y="1391" width="1207" height="117" fill="#E3F2D9"/><text font-family="Times New Roman,Times New Roman_MSFontService,sans-serif" font-weight="700" font-size="59" transform="matrix(1 0 0 1 1585.37 1472)">BIN Systems Using Brain<tspan font-size="59" x="636.51" y="0">-</tspan><tspan font-size="59" x="655.99" y="0">inspired Hardware</tspan></text><rect x="1548" y="1549" width="1207" height="117" fill="#E3F2D9"/><text font-family="Times New Roman,Times New Roman_MSFontService,sans-serif" font-weight="700" font-size="59" transform="matrix(1 0 0 1 1908.5 1629)">Periodic Discussion</text><path d="M1502.5 1825.81C1502.5 1804.65 1519.65 1787.5 1540.81 1787.5L2763.19 1787.5C2784.35 1787.5 2801.5 1804.65 2801.5 1825.81L2801.5 2677.19C2801.5 2698.35 2784.35 2715.5 2763.19 2715.5L1540.81 2715.5C1519.65 2715.5 1502.5 2698.35 1502.5 2677.19Z" stroke="#4874CB" stroke-width="6.875" stroke-miterlimit="8" fill="none" fill-rule="evenodd"/><text font-family="Times New Roman,Times New Roman_MSFontService,sans-serif" font-weight="700" font-size="69" transform="matrix(1 0 0 1 1637.51 1889)">Sec. 5  <tspan font-size="69" x="202.24" y="0">Implementation  Conditions</tspan></text><rect x="1548" y="1942" width="1207" height="117" fill="#E3F2D9"/><text font-family="Times New Roman,Times New Roman_MSFontService,sans-serif" font-weight="700" font-size="59" transform="matrix(1 0 0 1 1905.77 2023)">Biomimetic Sensors</text><rect x="1548" y="2096" width="1207" height="117" fill="#E3F2D9"/><text font-family="Times New Roman,Times New Roman_MSFontService,sans-serif" font-weight="700" font-size="59" transform="matrix(1 0 0 1 1864.8 2177)">Neuromorphic Sensors</text><rect x="1548" y="2250" width="1207" height="117" fill="#E3F2D9"/><text font-family="Times New Roman,Times New Roman_MSFontService,sans-serif" font-weight="700" font-size="59" transform="matrix(1 0 0 1 1827.57 2331)">Neuromorphic Processors</text><rect x="1548" y="2558" width="1207" height="117" fill="#E3F2D9"/><text font-family="Times New Roman,Times New Roman_MSFontService,sans-serif" font-weight="700" font-size="59" transform="matrix(1 0 0 1 1908.63 2639)">Periodic Discussion</text><rect x="1548" y="2404" width="1207" height="117" fill="#E3F2D9"/><text font-family="Times New Roman,Times New Roman_MSFontService,sans-serif" font-weight="700" font-size="59" transform="matrix(1 0 0 1 1793.19 2485)">Data &amp; Simulator Resources</text><path d="M2892.5 785.343C2892.5 771.623 2903.62 760.5 2917.34 760.5L4582.66 760.5C4596.38 760.5 4607.5 771.623 4607.5 785.343L4607.5 888.656C4607.5 902.377 4596.38 913.5 4582.66 913.5L2917.34 913.5C2903.62 913.5 2892.5 902.377 2892.5 888.656Z" stroke="#4874CB" stroke-width="6.875" stroke-miterlimit="8" fill="none" fill-rule="evenodd"/><text font-family="Times New Roman,Times New Roman_MSFontService,sans-serif" font-weight="700" font-size="69" transform="matrix(1 0 0 1 3240.24 861)">Sec. 6  <tspan font-size="69" x="202.24" y="0">Framework of BIN Systems</tspan></text><path d="M2892.5 2587.34C2892.5 2573.62 2903.62 2562.5 2917.34 2562.5L4582.66 2562.5C4596.38 2562.5 4607.5 2573.62 4607.5 2587.34L4607.5 2690.66C4607.5 2704.38 4596.38 2715.5 4582.66 2715.5L2917.34 2715.5C2903.62 2715.5 2892.5 2704.38 2892.5 2690.66Z" stroke="#4874CB" stroke-width="6.875" stroke-miterlimit="8" fill="none" fill-rule="evenodd"/><text font-family="Times New Roman,Times New Roman_MSFontService,sans-serif" font-weight="700" font-size="69" transform="matrix(1 0 0 1 3483.73 2664)">Sec. 8  <tspan font-size="69" x="202.24" y="0">Conclusion</tspan></text><path d="M2892.5 1014.48C2892.5 994.609 2908.61 978.5 2928.48 978.5L4571.52 978.5C4591.39 978.5 4607.5 994.609 4607.5 1014.48L4607.5 2462.63C4607.5 2482.5 4591.39 2498.61 4571.52 2498.61L2928.48 2498.61C2908.61 2498.61 2892.5 2482.5 2892.5 2462.63Z" stroke="#4874CB" stroke-width="6.875" stroke-miterlimit="8" fill="none" fill-rule="evenodd"/><text font-family="Times New Roman,Times New Roman_MSFontService,sans-serif" font-weight="700" font-size="69" transform="matrix(1 0 0 1 3424.84 1071)">Sec. 7  <tspan font-size="69" x="202.24" y="0">Future  Trends</tspan></text><rect x="2947" y="1113" width="1605" height="117" fill="#E3F2D9"/><text font-family="Times New Roman,Times New Roman_MSFontService,sans-serif" font-weight="700" font-size="59" transform="matrix(1 0 0 1 3169.72 1194)">Clarifying the Conceptual Connotation of BIN</text><rect x="2947" y="1436" width="1605" height="169" fill="#E3F2D9"/><text font-family="Times New Roman,Times New Roman_MSFontService,sans-serif" font-weight="700" font-size="59" transform="matrix(1 0 0 1 2988.39 1504)">Developing Advanced BIN Systems with Integrated Software<tspan font-size="59" x="600.99" y="78">&amp; Hardware</tspan></text><rect x="2947" y="1650" width="1605" height="117" fill="#E3F2D9"/><text font-family="Times New Roman,Times New Roman_MSFontService,sans-serif" font-weight="700" font-size="59" transform="matrix(1 0 0 1 3040.81 1730)">Developing BIN from Individuals to Swarms Intelligence</text><rect x="2947" y="1973" width="1605" height="169" fill="#E3F2D9"/><text font-family="Times New Roman,Times New Roman_MSFontService,sans-serif" font-weight="700" font-size="59" transform="matrix(1 0 0 1 3050.26 2041)">Exploring the Cognitive Neuroscience &amp; Computational <tspan font-size="59" x="417.358" y="78">Neuroscience In</tspan><tspan font-size="59" x="818.4" y="78">-</tspan><tspan font-size="59" x="837.879" y="78">depth</tspan></text><rect x="2947" y="2186" width="1605" height="117" fill="#E3F2D9"/><text font-family="Times New Roman,Times New Roman_MSFontService,sans-serif" font-weight="700" font-size="59" transform="matrix(1 0 0 1 3020.19 2267)">Exploring Novel Brain<tspan font-size="59" x="564.896" y="0">-</tspan><tspan font-size="59" x="584.375" y="0">Inspired AI Computing Paradigms</tspan></text><rect x="2947" y="1275" width="1605" height="117" fill="#E3F2D9"/><text font-family="Times New Roman,Times New Roman_MSFontService,sans-serif" font-weight="700" font-size="59" transform="matrix(1 0 0 1 3036.23 1355)">Constructing the Ecosystem &amp; Evaluation System of BIN</text><rect x="2947" y="1811" width="1605" height="117" fill="#E3F2D9"/><text font-family="Times New Roman,Times New Roman_MSFontService,sans-serif" font-weight="700" font-size="59" transform="matrix(1 0 0 1 2988.39 1892)">Exploring the Integration of BIN &amp; Other PNT Technologies</text><rect x="2947" y="2348" width="1605" height="117" fill="#E3F2D9"/><text font-family="Times New Roman,Times New Roman_MSFontService,sans-serif" font-weight="700" font-size="59" transform="matrix(1 0 0 1 3213.83 2429)">Exploring the Application Potential of BIN</text></g></svg>