<svg width="4195" height="1358" xmlns="http://www.w3.org/2000/svg" xmlns:xlink="http://www.w3.org/1999/xlink" overflow="hidden"><defs><filter id="fx0" x="-10%" y="-10%" width="120%" height="120%" filterUnits="userSpaceOnUse" primitiveUnits="userSpaceOnUse"><feComponentTransfer color-interpolation-filters="sRGB"><feFuncR type="discrete" tableValues="0 0"/><feFuncG type="discrete" tableValues="0 0"/><feFuncB type="discrete" tableValues="0 0"/><feFuncA type="linear" slope="0.631373" intercept="0"/></feComponentTransfer><feGaussianBlur stdDeviation="6.875 6.875"/></filter><filter id="fx1" x="-10%" y="-10%" width="120%" height="120%" filterUnits="userSpaceOnUse" primitiveUnits="userSpaceOnUse"><feComponentTransfer color-interpolation-filters="sRGB"><feFuncR type="discrete" tableValues="0 0"/><feFuncG type="discrete" tableValues="0 0"/><feFuncB type="discrete" tableValues="0 0"/><feFuncA type="linear" slope="0.631373" intercept="0"/></feComponentTransfer><feGaussianBlur stdDeviation="6.875 6.875"/></filter><filter id="fx2" x="-10%" y="-10%" width="120%" height="120%" filterUnits="userSpaceOnUse" primitiveUnits="userSpaceOnUse"><feComponentTransfer color-interpolation-filters="sRGB"><feFuncR type="discrete" tableValues="0 0"/><feFuncG type="discrete" tableValues="0 0"/><feFuncB type="discrete" tableValues="0 0"/><feFuncA type="linear" slope="0.631373" intercept="0"/></feComponentTransfer><feGaussianBlur stdDeviation="6.875 6.875"/></filter><filter id="fx3" x="-10%" y="-10%" width="120%" height="120%" filterUnits="userSpaceOnUse" primitiveUnits="userSpaceOnUse"><feComponentTransfer color-interpolation-filters="sRGB"><feFuncR type="discrete" tableValues="0 0"/><feFuncG type="discrete" tableValues="0 0"/><feFuncB type="discrete" tableValues="0 0"/><feFuncA type="linear" slope="0.631373" intercept="0"/></feComponentTransfer><feGaussianBlur stdDeviation="6.875 6.875"/></filter><filter id="fx4" x="-10%" y="-10%" width="120%" height="120%" filterUnits="userSpaceOnUse" primitiveUnits="userSpaceOnUse"><feComponentTransfer color-interpolation-filters="sRGB"><feFuncR type="discrete" tableValues="0 0"/><feFuncG type="discrete" tableValues="0 0"/><feFuncB type="discrete" tableValues="0 0"/><feFuncA type="linear" slope="0.631373" intercept="0"/></feComponentTransfer><feGaussianBlur stdDeviation="6.875 6.875"/></filter><filter id="fx5" x="-10%" y="-10%" width="120%" height="120%" filterUnits="userSpaceOnUse" primitiveUnits="userSpaceOnUse"><feComponentTransfer color-interpolation-filters="sRGB"><feFuncR type="discrete" tableValues="0 0"/><feFuncG type="discrete" tableValues="0 0"/><feFuncB type="discrete" tableValues="0 0"/><feFuncA type="linear" slope="0.631373" intercept="0"/></feComponentTransfer><feGaussianBlur stdDeviation="6.875 6.875"/></filter><filter id="fx6" x="-10%" y="-10%" width="120%" height="120%" filterUnits="userSpaceOnUse" primitiveUnits="userSpaceOnUse"><feComponentTransfer color-interpolation-filters="sRGB"><feFuncR type="discrete" tableValues="0 0"/><feFuncG type="discrete" tableValues="0 0"/><feFuncB type="discrete" tableValues="0 0"/><feFuncA type="linear" slope="0.631373" intercept="0"/></feComponentTransfer><feGaussianBlur stdDeviation="6.875 6.875"/></filter><filter id="fx7" x="-10%" y="-10%" width="120%" height="120%" filterUnits="userSpaceOnUse" primitiveUnits="userSpaceOnUse"><feComponentTransfer color-interpolation-filters="sRGB"><feFuncR type="discrete" tableValues="0 0"/><feFuncG type="discrete" tableValues="0 0"/><feFuncB type="discrete" tableValues="0 0"/><feFuncA type="linear" slope="0.631373" intercept="0"/></feComponentTransfer><feGaussianBlur stdDeviation="6.875 6.875"/></filter><filter id="fx8" x="-10%" y="-10%" width="120%" height="120%" filterUnits="userSpaceOnUse" primitiveUnits="userSpaceOnUse"><feComponentTransfer color-interpolation-filters="sRGB"><feFuncR type="discrete" tableValues="0 0"/><feFuncG type="discrete" tableValues="0 0"/><feFuncB type="discrete" tableValues="0 0"/><feFuncA type="linear" slope="0.631373" intercept="0"/></feComponentTransfer><feGaussianBlur stdDeviation="6.875 6.875"/></filter><filter id="fx9" x="-10%" y="-10%" width="120%" height="120%" filterUnits="userSpaceOnUse" primitiveUnits="userSpaceOnUse"><feComponentTransfer color-interpolation-filters="sRGB"><feFuncR type="discrete" tableValues="0 0"/><feFuncG type="discrete" tableValues="0 0"/><feFuncB type="discrete" tableValues="0 0"/><feFuncA type="linear" slope="0.631373" intercept="0"/></feComponentTransfer><feGaussianBlur stdDeviation="6.875 6.875"/></filter><filter id="fx10" x="-10%" y="-10%" width="120%" height="120%" filterUnits="userSpaceOnUse" primitiveUnits="userSpaceOnUse"><feComponentTransfer color-interpolation-filters="sRGB"><feFuncR type="discrete" tableValues="0 0"/><feFuncG type="discrete" tableValues="0 0"/><feFuncB type="discrete" tableValues="0 0"/><feFuncA type="linear" slope="0.631373" intercept="0"/></feComponentTransfer><feGaussianBlur stdDeviation="6.875 6.875"/></filter><clipPath id="clip11"><rect x="242" y="2689" width="4195" height="1358"/></clipPath><clipPath id="clip12"><path d="M531 3260C492.34 3260 461 3289.55 461 3326 461 3362.45 492.34 3392 531 3392 569.66 3392 601 3362.45 601 3326 601 3289.55 569.66 3260 531 3260ZM242 2689 4437 2689 4437 4047 242 4047Z" fill-rule="evenodd" clip-rule="evenodd"/></clipPath><clipPath id="clip13"><rect x="-17" y="-17" width="95" height="92"/></clipPath><clipPath id="clip14"><rect x="0" y="0" width="198" height="190"/></clipPath><clipPath id="clip15"><path d="M830 3260C791.34 3260 760 3289.55 760 3326 760 3362.45 791.34 3392 830 3392 868.66 3392 900 3362.45 900 3326 900 3289.55 868.66 3260 830 3260ZM242 2689 4437 2689 4437 4047 242 4047Z" fill-rule="evenodd" clip-rule="evenodd"/></clipPath><clipPath id="clip16"><rect x="-17" y="-17" width="95" height="92"/></clipPath><clipPath id="clip17"><rect x="0" y="0" width="198" height="190"/></clipPath><clipPath id="clip18"><path d="M1166.5 3260C1127.56 3260 1096 3289.55 1096 3326 1096 3362.45 1127.56 3392 1166.5 3392 1205.44 3392 1237 3362.45 1237 3326 1237 3289.55 1205.44 3260 1166.5 3260ZM242 2689 4437 2689 4437 4047 242 4047Z" fill-rule="evenodd" clip-rule="evenodd"/></clipPath><clipPath id="clip19"><rect x="-17" y="-17" width="95" height="92"/></clipPath><clipPath id="clip20"><rect x="0" y="0" width="199" height="190"/></clipPath><clipPath id="clip21"><path d="M1507.5 3260C1468.56 3260 1437 3289.55 1437 3326 1437 3362.45 1468.56 3392 1507.5 3392 1546.44 3392 1578 3362.45 1578 3326 1578 3289.55 1546.44 3260 1507.5 3260ZM242 2689 4437 2689 4437 4047 242 4047Z" fill-rule="evenodd" clip-rule="evenodd"/></clipPath><clipPath id="clip22"><rect x="-17" y="-17" width="95" height="92"/></clipPath><clipPath id="clip23"><rect x="0" y="0" width="199" height="190"/></clipPath><clipPath id="clip24"><path d="M1853 3260C1814.34 3260 1783 3289.55 1783 3326 1783 3362.45 1814.34 3392 1853 3392 1891.66 3392 1923 3362.45 1923 3326 1923 3289.55 1891.66 3260 1853 3260ZM242 2689 4437 2689 4437 4047 242 4047Z" fill-rule="evenodd" clip-rule="evenodd"/></clipPath><clipPath id="clip25"><rect x="-17" y="-17" width="95" height="92"/></clipPath><clipPath id="clip26"><rect x="0" y="0" width="198" height="190"/></clipPath><clipPath id="clip27"><path d="M2183.5 3260C2144.56 3260 2113 3289.55 2113 3326 2113 3362.45 2144.56 3392 2183.5 3392 2222.44 3392 2254 3362.45 2254 3326 2254 3289.55 2222.44 3260 2183.5 3260ZM242 2689 4437 2689 4437 4047 242 4047Z" fill-rule="evenodd" clip-rule="evenodd"/></clipPath><clipPath id="clip28"><rect x="-17" y="-17" width="95" height="92"/></clipPath><clipPath id="clip29"><rect x="0" y="0" width="199" height="190"/></clipPath><clipPath id="clip30"><path d="M2522 3260C2483.34 3260 2452 3289.55 2452 3326 2452 3362.45 2483.34 3392 2522 3392 2560.66 3392 2592 3362.45 2592 3326 2592 3289.55 2560.66 3260 2522 3260ZM242 2689 4437 2689 4437 4047 242 4047Z" fill-rule="evenodd" clip-rule="evenodd"/></clipPath><clipPath id="clip31"><rect x="-17" y="-17" width="95" height="92"/></clipPath><clipPath id="clip32"><rect x="0" y="0" width="198" height="190"/></clipPath><clipPath id="clip33"><path d="M2881 3260C2842.34 3260 2811 3289.55 2811 3326 2811 3362.45 2842.34 3392 2881 3392 2919.66 3392 2951 3362.45 2951 3326 2951 3289.55 2919.66 3260 2881 3260ZM242 2689 4437 2689 4437 4047 242 4047Z" fill-rule="evenodd" clip-rule="evenodd"/></clipPath><clipPath id="clip34"><rect x="-17" y="-17" width="95" height="92"/></clipPath><clipPath id="clip35"><rect x="0" y="0" width="198" height="190"/></clipPath><clipPath id="clip36"><path d="M3244.5 3260C3205.56 3260 3174 3289.55 3174 3326 3174 3362.45 3205.56 3392 3244.5 3392 3283.44 3392 3315 3362.45 3315 3326 3315 3289.55 3283.44 3260 3244.5 3260ZM242 2689 4437 2689 4437 4047 242 4047Z" fill-rule="evenodd" clip-rule="evenodd"/></clipPath><clipPath id="clip37"><rect x="-17" y="-17" width="95" height="92"/></clipPath><clipPath id="clip38"><rect x="0" y="0" width="199" height="190"/></clipPath><clipPath id="clip39"><path d="M4052 3260C4013.34 3260 3982 3289.55 3982 3326 3982 3362.45 4013.34 3392 4052 3392 4090.66 3392 4122 3362.45 4122 3326 4122 3289.55 4090.66 3260 4052 3260ZM242 2689 4437 2689 4437 4047 242 4047Z" fill-rule="evenodd" clip-rule="evenodd"/></clipPath><clipPath id="clip40"><rect x="-17" y="-17" width="95" height="92"/></clipPath><clipPath id="clip41"><rect x="0" y="0" width="198" height="190"/></clipPath><clipPath id="clip42"><path d="M3645.5 3260C3606.56 3260 3575 3289.55 3575 3326 3575 3362.45 3606.56 3392 3645.5 3392 3684.44 3392 3716 3362.45 3716 3326 3716 3289.55 3684.44 3260 3645.5 3260ZM242 2689 4437 2689 4437 4047 242 4047Z" fill-rule="evenodd" clip-rule="evenodd"/></clipPath><clipPath id="clip43"><rect x="-17" y="-17" width="95" height="92"/></clipPath><clipPath id="clip44"><rect x="0" y="0" width="199" height="190"/></clipPath></defs><g clip-path="url(#clip11)" transform="translate(-242 -2689)"><path d="M302.5 3276.25 4350 3276.25 4350 3237.5 4427.5 3315 4350 3392.5 4350 3353.75 302.5 3353.75Z" stroke="#7030A0" stroke-width="4.58333" stroke-miterlimit="8" fill="#7030A0" fill-rule="evenodd"/><text font-family="Times New Roman,Times New Roman_MSFontService,sans-serif" font-weight="700" font-size="69" transform="matrix(1 0 0 1 353.604 3092)">Tolman<tspan font-size="69" x="246.354" y="0">[14]</tspan><tspan font-size="73" x="-27.6834" y="-310">Proposed the </tspan><tspan font-size="73" x="17.0042" y="-222">concept of </tspan><tspan font-size="73" x="-66.9167" y="-134">‘</tspan><tspan font-size="73" x="-42.2813" y="-134">cognitive map</tspan><tspan font-size="73" x="396.573" y="-134">’</tspan></text><g clip-path="url(#clip12)"><g clip-path="url(#clip13)" filter="url(#fx0)" transform="translate(432 3238)"><g clip-path="url(#clip14)"><path d="M29 94.8752C29 58.4245 60.34 28.8752 98.9999 28.8752 137.66 28.8752 169 58.4245 169 94.8752 169 131.326 137.66 160.875 98.9999 160.875 60.34 160.875 29 131.326 29 94.8752Z" stroke="#FFFFFF" stroke-width="14" stroke-linejoin="round" stroke-miterlimit="10" fill="#7030A0" fill-rule="evenodd"/></g></g></g><path d="M461 3326C461 3289.55 492.34 3260 531 3260 569.66 3260 601 3289.55 601 3326 601 3362.45 569.66 3392 531 3392 492.34 3392 461 3362.45 461 3326Z" stroke="#FFFFFF" stroke-width="13.75" stroke-linejoin="round" stroke-miterlimit="10" fill="#7030A0" fill-rule="evenodd"/><text font-family="Times New Roman,Times New Roman_MSFontService,sans-serif" font-weight="700" font-size="92" transform="matrix(1 0 0 1 437.937 3523)">1948</text><path d="M531.5 3130.5 531.5 3255.17" stroke="#7030A0" stroke-width="20.625" stroke-miterlimit="8" fill="none" fill-rule="evenodd"/><g clip-path="url(#clip15)"><g clip-path="url(#clip16)" filter="url(#fx1)" transform="translate(731 3238)"><g clip-path="url(#clip17)"><path d="M29.0001 94.8752C29.0001 58.4245 60.3401 28.8752 99 28.8752 137.66 28.8752 169 58.4245 169 94.8752 169 131.326 137.66 160.875 99 160.875 60.3401 160.875 29.0001 131.326 29.0001 94.8752Z" stroke="#FFFFFF" stroke-width="14" stroke-linejoin="round" stroke-miterlimit="10" fill="#7030A0" fill-rule="evenodd"/></g></g></g><path d="M760 3326C760 3289.55 791.34 3260 830 3260 868.66 3260 900 3289.55 900 3326 900 3362.45 868.66 3392 830 3392 791.34 3392 760 3362.45 760 3326Z" stroke="#FFFFFF" stroke-width="13.75" stroke-linejoin="round" stroke-miterlimit="10" fill="#7030A0" fill-rule="evenodd"/><text font-family="Times New Roman,Times New Roman_MSFontService,sans-serif" font-weight="700" font-size="92" transform="matrix(1 0 0 1 738.146 3523)">1971</text><path d="M830.5 3540.5 830.5 3665.17" stroke="#7030A0" stroke-width="20.625" stroke-miterlimit="8" fill="none" fill-rule="evenodd"/><text font-family="Times New Roman,Times New Roman_MSFontService,sans-serif" font-weight="700" font-size="69" transform="matrix(1 0 0 1 554.125 3748)">O’Keefe, et al.<tspan font-size="69" x="435.99" y="0">[15]</tspan><tspan font-size="73" x="44.2292" y="145">Discovered the </tspan><tspan font-size="73" x="117.288" y="233">place cells</tspan></text><g clip-path="url(#clip18)"><g clip-path="url(#clip19)" filter="url(#fx2)" transform="translate(1067 3238)"><g clip-path="url(#clip20)"><path d="M28.9999 94.8752C28.9999 58.4245 60.5639 28.8752 99.5 28.8752 138.436 28.8752 170 58.4245 170 94.8752 170 131.326 138.436 160.875 99.5 160.875 60.5639 160.875 28.9999 131.326 28.9999 94.8752Z" stroke="#FFFFFF" stroke-width="14" stroke-linejoin="round" stroke-miterlimit="10" fill="#7030A0" fill-rule="evenodd"/></g></g></g><path d="M1096 3326C1096 3289.55 1127.56 3260 1166.5 3260 1205.44 3260 1237 3289.55 1237 3326 1237 3362.45 1205.44 3392 1166.5 3392 1127.56 3392 1096 3362.45 1096 3326Z" stroke="#FFFFFF" stroke-width="13.75" stroke-linejoin="round" stroke-miterlimit="10" fill="#7030A0" fill-rule="evenodd"/><text font-family="Times New Roman,Times New Roman_MSFontService,sans-serif" font-weight="700" font-size="92" transform="matrix(1 0 0 1 1074.56 3523)">1976</text><path d="M1166.5 3130.5 1166.5 3255.17" stroke="#7030A0" stroke-width="20.625" stroke-miterlimit="8" fill="none" fill-rule="evenodd"/><text font-family="Times New Roman,Times New Roman_MSFontService,sans-serif" font-weight="700" font-size="69" transform="matrix(1 0 0 1 890.542 3092)">O’Keefe, et al.<tspan font-size="69" x="435.99" y="0">[16]</tspan><tspan font-size="73" x="-4.86987" y="-310">Revealed</tspan><tspan font-size="73" x="298.776" y="-310">physical </tspan><tspan font-size="73" x="8.00928" y="-222">essence of spatial</tspan><tspan font-size="73" x="130.613" y="-134">cognition</tspan></text><g clip-path="url(#clip21)"><g clip-path="url(#clip22)" filter="url(#fx3)" transform="translate(1408 3238)"><g clip-path="url(#clip23)"><path d="M28.9999 94.8752C28.9999 58.4245 60.5639 28.8752 99.5 28.8752 138.436 28.8752 170 58.4245 170 94.8752 170 131.326 138.436 160.875 99.5 160.875 60.5639 160.875 28.9999 131.326 28.9999 94.8752Z" stroke="#FFFFFF" stroke-width="14" stroke-linejoin="round" stroke-miterlimit="10" fill="#7030A0" fill-rule="evenodd"/></g></g></g><path d="M1437 3326C1437 3289.55 1468.56 3260 1507.5 3260 1546.44 3260 1578 3289.55 1578 3326 1578 3362.45 1546.44 3392 1507.5 3392 1468.56 3392 1437 3362.45 1437 3326Z" stroke="#FFFFFF" stroke-width="13.75" stroke-linejoin="round" stroke-miterlimit="10" fill="#7030A0" fill-rule="evenodd"/><text font-family="Times New Roman,Times New Roman_MSFontService,sans-serif" font-weight="700" font-size="92" transform="matrix(1 0 0 1 1415.79 3523)">1978</text><path d="M1507.5 3540.5 1507.5 3665.17" stroke="#7030A0" stroke-width="20.625" stroke-miterlimit="8" fill="none" fill-rule="evenodd"/><text font-family="Times New Roman,Times New Roman_MSFontService,sans-serif" font-weight="700" font-size="69" transform="matrix(1 0 0 1 1231.77 3748)">O’Keefe, et al.<tspan font-size="69" x="435.99" y="0">[17]</tspan><tspan font-size="73" x="-46.1772" y="150">The hippocampus as </tspan><tspan font-size="73" x="28.8749" y="238">a cognitive map</tspan></text><g clip-path="url(#clip24)"><g clip-path="url(#clip25)" filter="url(#fx4)" transform="translate(1754 3238)"><g clip-path="url(#clip26)"><path d="M29 94.8752C29 58.4245 60.34 28.8752 99 28.8752 137.66 28.8752 169 58.4245 169 94.8752 169 131.326 137.66 160.875 99 160.875 60.34 160.875 29 131.326 29 94.8752Z" stroke="#FFFFFF" stroke-width="14" stroke-linejoin="round" stroke-miterlimit="10" fill="#7030A0" fill-rule="evenodd"/></g></g></g><path d="M1783 3326C1783 3289.55 1814.34 3260 1853 3260 1891.66 3260 1923 3289.55 1923 3326 1923 3362.45 1891.66 3392 1853 3392 1814.34 3392 1783 3362.45 1783 3326Z" stroke="#FFFFFF" stroke-width="13.75" stroke-linejoin="round" stroke-miterlimit="10" fill="#7030A0" fill-rule="evenodd"/><text font-family="Times New Roman,Times New Roman_MSFontService,sans-serif" font-weight="700" font-size="92" transform="matrix(1 0 0 1 1761.37 3523)">1984</text><path d="M1853.5 3130.5 1853.5 3255.17" stroke="#7030A0" stroke-width="20.625" stroke-miterlimit="8" fill="none" fill-rule="evenodd"/><text font-family="Times New Roman,Times New Roman_MSFontService,sans-serif" font-weight="700" font-size="69" transform="matrix(1 0 0 1 1603.94 3092)">Ranck, et al.<tspan font-size="69" x="383.854" y="0">[18]</tspan><tspan font-size="73" x="-46.5208" y="-265">Discovered</tspan><tspan font-size="73" x="318.427" y="-265">the HD</tspan><tspan font-size="73" x="181.5" y="-177">cells</tspan></text><g clip-path="url(#clip27)"><g clip-path="url(#clip28)" filter="url(#fx5)" transform="translate(2084 3238)"><g clip-path="url(#clip29)"><path d="M29 94.8752C29 58.4245 60.5639 28.8752 99.5 28.8752 138.436 28.8752 170 58.4245 170 94.8752 170 131.326 138.436 160.875 99.5 160.875 60.5639 160.875 29 131.326 29 94.8752Z" stroke="#FFFFFF" stroke-width="14" stroke-linejoin="round" stroke-miterlimit="10" fill="#7030A0" fill-rule="evenodd"/></g></g></g><path d="M2113 3326C2113 3289.55 2144.56 3260 2183.5 3260 2222.44 3260 2254 3289.55 2254 3326 2254 3362.45 2222.44 3392 2183.5 3392 2144.56 3392 2113 3362.45 2113 3326Z" stroke="#FFFFFF" stroke-width="13.75" stroke-linejoin="round" stroke-miterlimit="10" fill="#7030A0" fill-rule="evenodd"/><text font-family="Times New Roman,Times New Roman_MSFontService,sans-serif" font-weight="700" font-size="92" transform="matrix(1 0 0 1 2091.83 3523)">2005</text><path d="M2184.5 3540.5 2184.5 3665.17" stroke="#7030A0" stroke-width="20.625" stroke-miterlimit="8" fill="none" fill-rule="evenodd"/><text font-family="Times New Roman,Times New Roman_MSFontService,sans-serif" font-weight="700" font-size="69" transform="matrix(1 0 0 1 1917.21 3748)">Hafting, et al.<tspan font-size="69" x="417.656" y="0">[23]</tspan><tspan font-size="73" x="34.9478" y="145">Discovered the </tspan><tspan font-size="73" x="124.323" y="233">grid cells</tspan></text><g clip-path="url(#clip30)"><g clip-path="url(#clip31)" filter="url(#fx6)" transform="translate(2423 3238)"><g clip-path="url(#clip32)"><path d="M29 94.8752C29 58.4245 60.34 28.8752 99 28.8752 137.66 28.8752 169 58.4245 169 94.8752 169 131.326 137.66 160.875 99 160.875 60.34 160.875 29 131.326 29 94.8752Z" stroke="#FFFFFF" stroke-width="14" stroke-linejoin="round" stroke-miterlimit="10" fill="#7030A0" fill-rule="evenodd"/></g></g></g><path d="M2452 3326C2452 3289.55 2483.34 3260 2522 3260 2560.66 3260 2592 3289.55 2592 3326 2592 3362.45 2560.66 3392 2522 3392 2483.34 3392 2452 3362.45 2452 3326Z" stroke="#FFFFFF" stroke-width="13.75" stroke-linejoin="round" stroke-miterlimit="10" fill="#7030A0" fill-rule="evenodd"/><text font-family="Times New Roman,Times New Roman_MSFontService,sans-serif" font-weight="700" font-size="92" transform="matrix(1 0 0 1 2430.31 3523)">2008</text><path d="M2522.5 3130.5 2522.5 3255.17" stroke="#7030A0" stroke-width="20.625" stroke-miterlimit="8" fill="none" fill-rule="evenodd"/><text font-family="Times New Roman,Times New Roman_MSFontService,sans-serif" font-weight="700" font-size="69" transform="matrix(1 0 0 1 2261.42 3092)">Solstad, <tspan font-size="69" x="248.646" y="0">et al. [24]</tspan><tspan font-size="73" x="29.2188" y="-265">Discovered the </tspan><tspan font-size="73" x="75.9229" y="-177">border cells</tspan></text><g clip-path="url(#clip33)"><g clip-path="url(#clip34)" filter="url(#fx7)" transform="translate(2782 3238)"><g clip-path="url(#clip35)"><path d="M28.9998 94.8752C28.9998 58.4245 60.3399 28.8752 98.9999 28.8752 137.66 28.8752 169 58.4245 169 94.8752 169 131.326 137.66 160.875 98.9999 160.875 60.3399 160.875 28.9998 131.326 28.9998 94.8752Z" stroke="#FFFFFF" stroke-width="14" stroke-linejoin="round" stroke-miterlimit="10" fill="#7030A0" fill-rule="evenodd"/></g></g></g><path d="M2811 3326C2811 3289.55 2842.34 3260 2881 3260 2919.66 3260 2951 3289.55 2951 3326 2951 3362.45 2919.66 3392 2881 3392 2842.34 3392 2811 3362.45 2811 3326Z" stroke="#FFFFFF" stroke-width="13.75" stroke-linejoin="round" stroke-miterlimit="10" fill="#7030A0" fill-rule="evenodd"/><text font-family="Times New Roman,Times New Roman_MSFontService,sans-serif" font-weight="700" font-size="92" transform="matrix(1 0 0 1 2788.04 3523)">2009</text><path d="M2881.5 3540.5 2881.5 3665.17" stroke="#7030A0" stroke-width="20.625" stroke-miterlimit="8" fill="none" fill-rule="evenodd"/><text font-family="Times New Roman,Times New Roman_MSFontService,sans-serif" font-weight="700" font-size="69" transform="matrix(1 0 0 1 2644.81 3748)">Lever, et al. <tspan font-size="69" x="363.802" y="0">[26]</tspan><tspan font-size="73" x="4.68652" y="145">Discovered the </tspan><tspan font-size="73" x="-100.432" y="233">boundary vector cells</tspan></text><g clip-path="url(#clip36)"><g clip-path="url(#clip37)" filter="url(#fx8)" transform="translate(3145 3238)"><g clip-path="url(#clip38)"><path d="M28.9998 94.8752C28.9998 58.4245 60.5637 28.8752 99.4999 28.8752 138.436 28.8752 170 58.4245 170 94.8752 170 131.326 138.436 160.875 99.4999 160.875 60.5637 160.875 28.9998 131.326 28.9998 94.8752Z" stroke="#FFFFFF" stroke-width="14" stroke-linejoin="round" stroke-miterlimit="10" fill="#7030A0" fill-rule="evenodd"/></g></g></g><path d="M3174 3326C3174 3289.55 3205.56 3260 3244.5 3260 3283.44 3260 3315 3289.55 3315 3326 3315 3362.45 3283.44 3392 3244.5 3392 3205.56 3392 3174 3362.45 3174 3326Z" stroke="#FFFFFF" stroke-width="13.75" stroke-linejoin="round" stroke-miterlimit="10" fill="#7030A0" fill-rule="evenodd"/><text font-family="Times New Roman,Times New Roman_MSFontService,sans-serif" font-weight="700" font-size="92" transform="matrix(1 0 0 1 3151.73 3523)">2011</text><path d="M3245.5 3130.5 3245.5 3255.17" stroke="#7030A0" stroke-width="20.625" stroke-miterlimit="8" fill="none" fill-rule="evenodd"/><text font-family="Times New Roman,Times New Roman_MSFontService,sans-serif" font-weight="700" font-size="69" transform="matrix(1 0 0 1 2919.12 3092)">MacDonald, et al<tspan font-size="69" x="501.875" y="0">. [27]</tspan><tspan font-size="73" x="96.0667" y="-265">Confirmed the </tspan><tspan font-size="73" x="-10.7708" y="-177">existence of time cells</tspan></text><g clip-path="url(#clip39)"><g clip-path="url(#clip40)" filter="url(#fx9)" transform="translate(3953 3238)"><g clip-path="url(#clip41)"><path d="M29 94.8752C29 58.4245 60.34 28.8752 99 28.8752 137.66 28.8752 169 58.4245 169 94.8752 169 131.326 137.66 160.875 99 160.875 60.34 160.875 29 131.326 29 94.8752Z" stroke="#FFFFFF" stroke-width="14" stroke-linejoin="round" stroke-miterlimit="10" fill="#7030A0" fill-rule="evenodd"/></g></g></g><path d="M3982 3326C3982 3289.55 4013.34 3260 4052 3260 4090.66 3260 4122 3289.55 4122 3326 4122 3362.45 4090.66 3392 4052 3392 4013.34 3392 3982 3362.45 3982 3326Z" stroke="#FFFFFF" stroke-width="13.75" stroke-linejoin="round" stroke-miterlimit="10" fill="#7030A0" fill-rule="evenodd"/><text font-family="Times New Roman,Times New Roman_MSFontService,sans-serif" font-weight="700" font-size="92" transform="matrix(1 0 0 1 3958.85 3523)">2017</text><path d="M4052.5 3130.5 4052.5 3255.17" stroke="#7030A0" stroke-width="20.625" stroke-miterlimit="8" fill="none" fill-rule="evenodd"/><text font-family="Times New Roman,Times New Roman_MSFontService,sans-serif" font-weight="700" font-size="69" transform="matrix(1 0 0 1 3684.08 3092)">Stachenfeld, et al<tspan font-size="69" x="501.875" y="0">. [29]</tspan><tspan font-size="73" x="45.7188" y="-265">The hippocampus as </tspan><tspan font-size="73" x="104.454" y="-177">a predictive map</tspan></text><g clip-path="url(#clip42)"><g clip-path="url(#clip43)" filter="url(#fx10)" transform="translate(3546 3238)"><g clip-path="url(#clip44)"><path d="M29 94.8752C29 58.4245 60.5639 28.8752 99.5 28.8752 138.436 28.8752 170 58.4245 170 94.8752 170 131.326 138.436 160.875 99.5 160.875 60.5639 160.875 29 131.326 29 94.8752Z" stroke="#FFFFFF" stroke-width="14" stroke-linejoin="round" stroke-miterlimit="10" fill="#7030A0" fill-rule="evenodd"/></g></g></g><path d="M3575 3326C3575 3289.55 3606.56 3260 3645.5 3260 3684.44 3260 3716 3289.55 3716 3326 3716 3362.45 3684.44 3392 3645.5 3392 3606.56 3392 3575 3362.45 3575 3326Z" stroke="#FFFFFF" stroke-width="13.75" stroke-linejoin="round" stroke-miterlimit="10" fill="#7030A0" fill-rule="evenodd"/><text font-family="Times New Roman,Times New Roman_MSFontService,sans-serif" font-weight="700" font-size="92" transform="matrix(1 0 0 1 3553.69 3523)">2015</text><path d="M3645.5 3540.5 3645.5 3665.17" stroke="#7030A0" stroke-width="20.625" stroke-miterlimit="8" fill="none" fill-rule="evenodd"/><text font-family="Times New Roman,Times New Roman_MSFontService,sans-serif" font-weight="700" font-size="69" transform="matrix(1 0 0 1 3391.21 3748)">Kropff, et al. <tspan font-size="69" x="394.74" y="0">[28]</tspan><tspan font-size="73" x="22.6873" y="150">Discovered the </tspan><tspan font-size="73" x="89.7185" y="238">speed cells</tspan></text></g></svg>