<svg width="3394" height="1779" xmlns="http://www.w3.org/2000/svg" xmlns:xlink="http://www.w3.org/1999/xlink" overflow="hidden"><defs><clipPath id="clip0"><rect x="787" y="2274" width="3394" height="1779"/></clipPath></defs><g clip-path="url(#clip0)" transform="translate(-787 -2274)"><path d="M1950.5 3872.67C1950.5 3853.25 1966.24 3837.5 1985.67 3837.5L2943.33 3837.5C2962.76 3837.5 2978.5 3853.25 2978.5 3872.67L2978.5 4013.33C2978.5 4032.75 2962.76 4048.5 2943.33 4048.5L1985.67 4048.5C1966.24 4048.5 1950.5 4032.75 1950.5 4013.33Z" stroke="#2E54A1" stroke-width="9.16667" stroke-miterlimit="8" fill="#F2F2F2" fill-rule="evenodd"/><text font-family="Times New Roman,Times New Roman_MSFontService,sans-serif" font-weight="700" font-size="83" transform="matrix(1 0 0 1 2171.93 3973)">Path Integration</text><rect x="1496.5" y="3276.5" width="1936" height="342" stroke="#2E54A1" stroke-width="9.16667" stroke-miterlimit="8" stroke-dasharray="36.6667 27.5" fill="none"/><path d="M1950.5 2313.67C1950.5 2294.24 1966.24 2278.5 1985.67 2278.5L2939.33 2278.5C2958.76 2278.5 2974.5 2294.24 2974.5 2313.67L2974.5 2454.33C2974.5 2473.75 2958.76 2489.5 2939.33 2489.5L1985.67 2489.5C1966.24 2489.5 1950.5 2473.75 1950.5 2454.33Z" stroke="#2E54A1" stroke-width="9.16667" stroke-miterlimit="8" fill="#FADBDF" fill-rule="evenodd"/><text font-family="Times New Roman,Times New Roman_MSFontService,sans-serif" font-weight="700" font-size="83" transform="matrix(1 0 0 1 2045.89 2414)">Environmental Sensory</text><path d="M2384 3438.98 2535.71 3438.98 2535.71 3455.02 2384 3455.02ZM2527.69 3406.9 2607.9 3447 2527.69 3487.1Z" fill="#325395"/><path d="M8.02083-1.32126e-05 8.02108 146.896-8.02059 146.896-8.02083 1.32126e-05ZM40.1044 138.875 0.000360892 219.083-40.1039 138.875Z" fill="#325395" transform="matrix(1 0 0 -1 2464 3837.08)"/><path d="M2562.5 2831.67C2562.5 2812.24 2578.24 2796.5 2597.67 2796.5L3326.33 2796.5C3345.76 2796.5 3361.5 2812.24 3361.5 2831.67L3361.5 2972.33C3361.5 2991.76 3345.76 3007.5 3326.33 3007.5L2597.67 3007.5C2578.24 3007.5 2562.5 2991.76 2562.5 2972.33Z" stroke="#000000" stroke-width="9.16667" stroke-miterlimit="8" fill="#D6DCE5" fill-rule="evenodd"/><text font-family="Times New Roman,Times New Roman_MSFontService,sans-serif" font-weight="700" font-size="83" transform="matrix(1 0 0 1 2770.17 2932)">Place Cells</text><path d="M1567.5 2831.67C1567.5 2812.24 1583.24 2796.5 1602.67 2796.5L2332.33 2796.5C2351.75 2796.5 2367.5 2812.24 2367.5 2831.67L2367.5 2972.33C2367.5 2991.76 2351.75 3007.5 2332.33 3007.5L1602.67 3007.5C1583.24 3007.5 1567.5 2991.76 1567.5 2972.33Z" stroke="#000000" stroke-width="9.16667" stroke-miterlimit="8" fill="#E3F2D9" fill-rule="evenodd"/><text font-family="Times New Roman,Times New Roman_MSFontService,sans-serif" font-weight="700" font-size="83" transform="matrix(1 0 0 1 1743.5 2932)">Border Cells</text><rect x="1496.5" y="2734.5" width="1936" height="342" stroke="#2E54A1" stroke-width="9.16667" stroke-miterlimit="8" stroke-dasharray="36.6667 27.5" fill="none"/><path d="M2470.02 2488.93 2471.64 2662.18 2455.6 2662.33 2453.98 2489.07ZM2503.65 2653.86 2464.29 2734.44 2423.44 2654.61Z" fill="#325395"/><text font-family="Times New Roman,Times New Roman_MSFontService,sans-serif" font-weight="700" font-size="83" transform="matrix(1 0 0 1 1772.6 2647)">Local Cues<tspan font-size="83" x="895.354" y="0">Contextual Cues</tspan></text><path d="M3148.02 3079.19 3148.02 3269.4 3131.98 3269.4 3131.98 3079.19ZM3099.9 3087.21 3140 3007 3180.1 3087.21ZM3180.1 3261.38 3140 3341.58 3099.9 3261.38Z" fill="#325395"/><path d="M0-8.02083 180.24-8.02083 180.24 825.917 172.219 817.896 272.25 817.896 272.25 833.938 164.198 833.938 164.198 0 172.219 8.02083 0 8.02083ZM264.229 785.812 344.438 825.917 264.229 866.021Z" fill="#325395" transform="matrix(6.12323e-17 1 1 -6.12323e-17 1967 3007)"/><path d="M2367 2892.98 2490.06 2892.98 2490.06 2909.02 2367 2909.02ZM2482.04 2860.9 2562.25 2901 2482.04 2941.1Z" fill="#325395"/><path d="M0-8.02083 666.875-8.02083 666.875 1071.12 525.938 1071.12 525.938 1055.08 658.854 1055.08 650.833 1063.1 650.833 0 658.854 8.02083 0 8.02083ZM533.958 1103.21 453.75 1063.1 533.958 1023Z" fill="#325395" transform="matrix(-1 1.22465e-16 1.22465e-16 1 1949.75 2384)"/><path d="M1567.5 3376.67C1567.5 3357.25 1583.24 3341.5 1602.67 3341.5L2351.33 3341.5C2370.76 3341.5 2386.5 3357.25 2386.5 3376.67L2386.5 3517.33C2386.5 3536.75 2370.76 3552.5 2351.33 3552.5L1602.67 3552.5C1583.24 3552.5 1567.5 3536.75 1567.5 3517.33Z" stroke="#000000" stroke-width="9.16667" stroke-miterlimit="8" fill="#FFF2CA" fill-rule="evenodd"/><text font-family="Times New Roman,Times New Roman_MSFontService,sans-serif" font-weight="700" font-size="83" transform="matrix(1 0 0 1 1609.9 3477)">Head Direction Cells</text><path d="M2608.5 3376.67C2608.5 3357.24 2624.24 3341.5 2643.67 3341.5L3326.33 3341.5C3345.75 3341.5 3361.5 3357.24 3361.5 3376.67L3361.5 3517.33C3361.5 3536.76 3345.75 3552.5 3326.33 3552.5L2643.67 3552.5C2624.24 3552.5 2608.5 3536.76 2608.5 3517.33Z" stroke="#000000" stroke-width="9.16667" stroke-miterlimit="8" fill="#D4F4F1" fill-rule="evenodd"/><text font-family="Times New Roman,Times New Roman_MSFontService,sans-serif" font-weight="700" font-size="83" transform="matrix(1 0 0 1 2673.92 3477)">Grid Cells / <tspan font-size="83" x="428.542" y="0">MEC</tspan><tspan font-size="83" x="-1079.38" y="283">Self</tspan>-motion Cues<tspan font-size="83" x="113.438" y="283">Propriception</tspan><tspan font-size="83" x="-1748.2" y="-581">Visual </tspan><tspan font-size="83" x="-1722.99" y="-482">Cues</tspan></text><path d="M0-8.02083 664.812-8.02083 664.812 1049.35 455.125 1049.35 455.125 1033.31 656.791 1033.31 648.77 1041.33 648.77 0 656.791 8.02083 0 8.02083ZM463.146 1081.44 382.938 1041.33 463.146 1001.23Z" fill="#325395" transform="matrix(1 0 0 -1 2978 3942.33)"/><text font-family="Times New Roman,Times New Roman_MSFontService,sans-serif" font-weight="700" font-size="83" transform="matrix(1 0 0 1 3697.83 3362)">Self<tspan font-size="83" x="132.917" y="0">-</tspan>motion<tspan font-size="83" x="116.875" y="99">Cues</tspan></text></g></svg>